<!DOCTYPE svg PUBLIC "-//W3C//DTD SVG 1.1//EN" "https://www.w3.org/Graphics/SVG/1.1/DTD/svg11.dtd">
<svg xmlns="http://www.w3.org/2000/svg" aria-label="Graph view" width="216" height="414"><g transform="translate(16,19.625)"><g class="nodes"><g class="node-container" transform="translate(93.61666870117188,18.75)"><g class="node anchor"><circle class="shape" x="-16.375" y="-8.75" r="26.375"/><text class="label"><tspan xml:space="preserve" text-anchor="middle" alignment-baseline="central">Start</tspan></text></g></g><g class="node-container" transform="translate(93.61666870117188,358.75)"><g class="node anchor"><circle class="shape" x="-12.675000190734863" y="-8.75" r="22.675000190734863"/><text class="label"><tspan xml:space="preserve" text-anchor="middle" alignment-baseline="central">End</tspan></text></g></g><g class="node-container" transform="translate(93.61666870117188,81.25)"><g class="node state Task" aria-label="State getApiInfo" data-virtual-tab-id="1" tabindex="0" transform="translate(-8)"><rect class="shape step-status" rx="5" ry="5" x="-44.09166717529297" y="-18.75" width="104.18333435058594" height="37.5"/><text class="label" xml:space="preserve" text-anchor="middle" alignment-baseline="central">getApiInfo</text><svg class="icon" width="16" height="16" x="39.09166717529297" y="-8"/></g></g><g class="node-container" transform="translate(93.61666870117188,188.75)"><g class="node state Map Container" aria-label="State MapCompute" data-virtual-tab-id="2" tabindex="-1" transform="translate(-83.61666870117188,-63.75)"><rect class="shape" rx="5" ry="5" width="187.23333740234375" height="117.5" transform="translate(-14,6)"/><rect class="shape" rx="5" ry="5" width="187.23333740234375" height="117.5" transform="translate(-12,8)"/><rect class="shape" rx="5" ry="5" width="187.23333740234375" height="117.5" transform="translate(-10,10)"/><g class="branches" transform="translate(20,70)"><g class="branch" transform="translate(0, 0)"><g class="nodes"><g class="node-container" transform="translate(63.61666488647461,18.75)"><g class="node state Task" aria-label="State callApiParallel" data-virtual-tab-id="3" tabindex="-1" transform="translate(-8)"><rect class="shape step-status" rx="5" ry="5" x="-55.61666488647461" y="-18.75" width="127.23332977294922" height="37.5"/><text class="label" xml:space="preserve" text-anchor="middle" alignment-baseline="central">callApiParallel</text><svg class="icon" width="16" height="16" x="50.61666488647461" y="-8"/></g></g></g><g class="edges"/></g></g><path class="path" style="fill: none;" marker-end="url(#arrowhead1)" d="M83.617,0L83.617,1.667C83.617,3.333,83.617,6.667,83.617,12.5C83.617,18.333,83.617,26.667,83.617,36.667C83.617,46.667,83.617,58.333,83.617,64.167L83.617,70"/><defs><marker id="arrowhead1" viewBox="0 0 10 10" refX="9" refY="5" markerUnits="strokeWidth" markerWidth="8" markerHeight="6" orient="auto"><path d="M 0 0 L 10 5 L 0 10 z"/></marker></defs><g class="title node state"><rect class="shape step-status" rx="5" ry="5" x="0" y="0" width="167.23333740234375" height="40" transform="translate(0)"/><text class="label" xml:space="preserve" text-anchor="middle" alignment-baseline="central" font-weight="600" x="167.23333740234375" y="15" transform="translate(-91.61666870117188)">MapCompute</text><text class="desciption" xml:space="preserve" text-anchor="middle" alignment-baseline="central" x="167.23333740234375" y="35" transform="translate(-83.61666870117188)"/><svg class="icon" width="16" height="16" xml:space="preserve" text-anchor="middle" alignment-baseline="central" x="128.23333358764648" y="8"/></g></g></g><g class="node-container" transform="translate(93.61666870117188,296.25)"><g class="node state Task" aria-label="State statisticCalledResults" data-virtual-tab-id="4" tabindex="-1" transform="translate(-8)"><rect class="shape step-status" rx="5" ry="5" x="-77.51667022705078" y="-18.75" width="171.03334045410156" height="37.5"/><text class="label" xml:space="preserve" text-anchor="middle" alignment-baseline="central">statisticCalledResults</text><svg class="icon" width="16" height="16" x="72.51667022705078" y="-8"/></g></g></g><g class="edges"><g class="edge"><path class="path" style="fill: none;" marker-end="url(#arrowhead2)" d="M93.617,100L93.617,102.083C93.617,104.167,93.617,108.333,93.617,112.5C93.617,116.667,93.617,120.833,93.617,122.917L93.617,125"/></g><g class="edge"><path class="path" style="fill: none;" marker-end="url(#arrowhead3)" d="M93.617,45.125L93.617,45.938C93.617,46.75,93.617,48.375,93.617,51.271C93.617,54.167,93.617,58.333,93.617,60.417L93.617,62.5"/><defs><marker id="arrowhead3" viewBox="0 0 10 10" refX="9" refY="5" markerUnits="strokeWidth" markerWidth="8" markerHeight="6" orient="auto"><path d="M 0 0 L 10 5 L 0 10 z"/></marker></defs></g><g class="edge"><path class="path" style="fill: none;" marker-end="url(#arrowhead4)" d="M93.617,252.5L93.617,254.583C93.617,256.667,93.617,260.833,93.617,265C93.617,269.167,93.617,273.333,93.617,275.417L93.617,277.5"/><defs><marker id="arrowhead4" viewBox="0 0 10 10" refX="9" refY="5" markerUnits="strokeWidth" markerWidth="8" markerHeight="6" orient="auto"><path d="M 0 0 L 10 5 L 0 10 z"/></marker></defs></g><g class="edge"><path class="path" style="fill: none;" marker-end="url(#arrowhead5)" d="M93.617,315L93.617,317.083C93.617,319.167,93.617,323.333,93.617,326.846C93.617,330.358,93.617,333.217,93.617,334.646L93.617,336.075"/><defs><marker id="arrowhead5" viewBox="0 0 10 10" refX="9" refY="5" markerUnits="strokeWidth" markerWidth="8" markerHeight="6" orient="auto"><path d="M 0 0 L 10 5 L 0 10 z"/></marker></defs></g></g></g><style xmlns="http://www.w3.org/1999/xhtml">
  .link &gt; rect {
    fill: #0073BB;
  }

  .link .label {
    fill: #FFFFFF;
  }

  .node &gt; .shape {
    stroke: #555555;
    stroke-width: 0.6px;
    fill: #FFFFFF;
  }

  path {
    stroke: #555;
    background-color: #555;
    stroke-width: 1px;
  }

  .node.state.NotYetStarted &gt; .shape,
  .node.state.Container &gt; .shape {
    stroke-dasharray: 5 2;
  }

  .node.state.FailedState &gt; .shape,
  rect.legend.FailedState {
    fill: #DE322F;
  }

  .node.state.CaughtErrorState &gt; .shape,
  rect.legend.CaughtErrorState {
    fill: #FFA500;
  }

  .node.state.SucceededState &gt; .shape,
  rect.legend.SucceededState {
    fill: #2BD62E;
  }

  .node.state.InProgressState &gt; .shape,
  rect.legend.InProgressState {
    fill: #53c9ed;
  }

  .node.state.CancelledState &gt; .shape,
  rect.legend.CancelledState {
    fill: #dddddd;
  }

  .node.anchor &gt; .shape {
    fill: #FFDA75;
  }

  .node.state.hovered:not(.selected):not(.NotYetStarted) &gt; .shape,
  .node.selected &gt; .shape {
    stroke: #555555;
    stroke-width: 2px;
  }

  .node.state.Container.Failed &gt; .shape {
    fill: #EE9592;
  }

  .node.state.Container.CaughtError &gt; .shape {
    fill: #FFD27F;
  }

  .node.state.Container.Succeeded &gt; .shape {
    fill: #91EA9A;
  }

  .node.state.Container.InProgress &gt; .shape {
    fill :#A9E4F7;
  }

  .node.state.Container.Cancelled &gt; .shape {
    fill: #EEEEEE;
  }

  marker {
    fill: #555555;
  }

  .node.anchor,
  .node.state.NotYetStarted {
    cursor: default;
  }

  .node.state {
    cursor: default;
  }

  tspan .label {
    font-weight: normal;
    font-size: 12px;
    text-shadow: none;
  }
</style></svg>